<!--?xml version="1.0" encoding="UTF-8"?-->
<svg width="512" height="512" viewBox="0 0 512 512" xmlns="http://www.w3.org/2000/svg">
  <defs>
    <filter id="shadow" x="-20%" y="-20%" width="140%" height="140%">
      <feDropShadow dx="0" dy="4" stdDeviation="6" flood-opacity="0.18"></feDropShadow>
    </filter>
  </defs>
  <g filter="url(#shadow)">
    <circle cx="170" cy="150" r="74" fill="#FFC84A"></circle>
    <g stroke="#FFC84A" stroke-width="16" stroke-linecap="round">
      <line x1="170" y1="56" x2="170" y2="24"></line>
      <line x1="170" y1="292" x2="170" y2="324"></line>
      <line x1="76" y1="150" x2="44" y2="150"></line>
      <line x1="304" y1="150" x2="336" y2="150"></line>
      <line x1="104" y1="84" x2="80" y2="60"></line>
      <line x1="260" y1="240" x2="284" y2="264"></line>
      <line x1="104" y1="216" x2="80" y2="240"></line>
      <line x1="260" y1="60" x2="284" y2="84"></line>
    </g>
  </g>
  <g filter="url(#shadow)">
    <path d="M330 206c-21 0-39 11-49 27a62 62 0 0 0-20-3c-34 0-62 25-62 56s28 56 62 56h134c27 0 50-19 50-43 0-23-19-41-44-43-6-27-33-50-71-50z" fill="#5DADEC"></path>
  </g>
  <g font-family="Inter, Segoe UI, Roboto, Arial, sans-serif" font-weight="800" font-size="110" text-anchor="start">
    <text x="200" y="430" fill="none" stroke="#0F172A" stroke-width="10" paint-order="stroke">lx</text>
    <text x="200" y="430" fill="#FFFFFF">lx</text>
  </g>
</svg>
